<svg width="80" height="87" viewBox="0 0 80 87" fill="none" xmlns="http://www.w3.org/2000/svg">
<circle cx="44" cy="36" r="36" fill="#FEFAE0"/>
<path d="M2 29V43C2 46.3137 4.68629 49 8 49H9C12.3137 49 15 46.3137 15 43V29" stroke="#283618" stroke-width="3"/>
<path d="M6.00003 49L4.23455 80.7781C4.10717 83.0709 5.93205 85 8.22839 85H8.77161C11.0679 85 12.8928 83.0709 12.7655 80.7781L11 49" stroke="#283618" stroke-width="3"/>
<line x1="6.5" y1="29" x2="6.5" y2="43" stroke="#283618" stroke-width="3"/>
<line x1="10.5" y1="29" x2="10.5" y2="43" stroke="#283618" stroke-width="3"/>
<path d="M33 64L34.7509 34.2349C34.886 31.9374 33.0593 30 30.7578 30L30.2422 30C27.9407 30 26.114 31.9374 26.2491 34.2349L28 64" stroke="#283618" stroke-width="3"/>
<path d="M37.4999 71.7027C37.4999 73.8092 36.6355 77.147 35.178 79.9645C34.4556 81.361 33.6314 82.5422 32.776 83.3538C31.9138 84.1719 31.147 84.5 30.4999 84.5C29.8528 84.5 29.086 84.1719 28.2238 83.3538C27.3684 82.5422 26.5442 81.361 25.8218 79.9645C24.3643 77.147 23.4999 73.8092 23.4999 71.7027C23.4999 67.6912 26.667 64.5 30.4999 64.5C34.3328 64.5 37.4999 67.6912 37.4999 71.7027Z" stroke="#283618" stroke-width="3"/>
</svg>
