<svg width="73" height="85" viewBox="0 0 73 85" fill="none" xmlns="http://www.w3.org/2000/svg">
<circle cx="36.9999" cy="36" r="36" fill="#FEFAE0"/>
<path d="M18.1512 34.8346C18.8616 33.9184 19.4812 33.1359 19.9755 32.5189C20.3123 32.9659 20.7144 33.493 21.1659 34.0848C21.3476 34.3229 21.5372 34.5714 21.7337 34.8294C23.5737 37.2444 26.0776 40.5606 28.5995 44.2143C31.1251 47.8732 33.647 51.8396 35.532 55.5521C37.4449 59.3194 38.5908 62.6162 38.5908 65C38.5908 75.2173 30.3081 83.5 20.0908 83.5C9.87355 83.5 1.59082 75.2173 1.59082 65C1.59082 62.6047 2.7028 59.3 4.56091 55.5352C6.39328 51.8226 8.85144 47.8562 11.3321 44.2C13.8091 40.5493 16.2891 37.2363 18.1512 34.8346Z" stroke="#283618" stroke-width="3"/>
<rect x="15.6465" y="55.5556" width="7.77778" height="15.5556" fill="#283618"/>
<rect x="11.2019" y="60" width="16.6667" height="6.66667" fill="#283618"/>
</svg>
