<svg width="80" height="87" viewBox="0 0 80 87" fill="none" xmlns="http://www.w3.org/2000/svg">
<circle cx="44" cy="36" r="36" fill="#FEFAE0"/>
<path d="M17.434 30C8.83839 30 1.86792 36.8343 1.86792 45.2662C1.86792 52.0728 4.59198 68.2272 31.406 84.5574C31.8863 84.8469 32.4378 85 33 85C33.5622 85 34.1136 84.8469 34.594 84.5574C61.408 68.2272 64.1321 52.0728 64.1321 45.2662C64.1321 36.8343 57.1616 30 48.566 30C39.9705 30 33 39.2522 33 39.2522C33 39.2522 26.0295 30 17.434 30Z" stroke="#283618" stroke-width="3" stroke-linecap="round" stroke-linejoin="round"/>
<path d="M5.5 58.0188H20.2472C20.4318 58.0188 20.6014 57.9171 20.6883 57.7541L24.2426 51.0899C24.4337 50.7317 24.9494 50.7385 25.131 51.1016L33.0061 66.8518C33.2013 67.2423 33.7682 67.2125 33.9215 66.8037L42.3457 44.3392C42.513 43.8931 43.1502 43.9115 43.2914 44.3665L47.4191 57.667C47.484 57.8763 47.6776 58.0188 47.8967 58.0188H61.0189" stroke="#283618" stroke-width="3"/>
</svg>
