<svg width="20" height="21" viewBox="0 0 20 21" fill="none" xmlns="http://www.w3.org/2000/svg">
<path d="M13.3342 14.2154L15.0564 12.4923C15.2883 12.2631 15.5818 12.1062 15.9012 12.0407C16.2205 11.9752 16.552 12.0038 16.8555 12.1231L18.9544 12.9616C19.261 13.0861 19.5239 13.2986 19.71 13.5724C19.8961 13.8462 19.997 14.169 20 14.5V18.3462C19.9982 18.5714 19.9509 18.7939 19.8609 19.0004C19.7709 19.2068 19.6401 19.3929 19.4763 19.5474C19.3125 19.7019 19.1192 19.8217 18.9079 19.8995C18.6967 19.9772 18.4719 20.0115 18.2471 20C3.5392 19.0846 0.57149 6.62311 0.010239 1.85388C-0.0158147 1.61967 0.00798984 1.38261 0.0800864 1.15827C0.152183 0.933932 0.270938 0.72741 0.428538 0.55229C0.586138 0.37717 0.779012 0.23742 0.994471 0.142234C1.20993 0.047049 1.44309 -0.00141474 1.67862 3.14377e-05H5.3921C5.72347 0.00101281 6.04698 0.10116 6.321 0.287592C6.59503 0.474025 6.80704 0.738216 6.92977 1.04619L7.7678 3.14619C7.89101 3.44855 7.92245 3.78053 7.85818 4.10066C7.79391 4.42079 7.63679 4.71487 7.40645 4.94619L5.68426 6.66926C5.68426 6.66926 6.67606 13.3846 13.3342 14.2154Z" fill="#283618"/>
</svg>
